<svg width="24" height="24" viewBox="0 0 24 24" fill="none" xmlns="http://www.w3.org/2000/svg">
<mask id="mask0" mask-type="alpha" maskUnits="userSpaceOnUse" x="7" y="4" width="10" height="16">
<path d="M16.2701 17.9399C16.0588 17.2099 15.6123 16.5701 15.0001 16.1199L14.0001 15.2099L13.0001 14.3199C12.6901 14.0399 12.4201 13.7799 12.0601 13.4299C11.7001 13.0799 11.0601 12.4299 10.1801 11.6499L15.8101 6.12988C16.0435 5.89649 16.1746 5.57994 16.1746 5.24988C16.1746 4.91981 16.0435 4.60327 15.8101 4.36988C15.5767 4.13649 15.2602 4.00537 14.9301 4.00537C14.6 4.00537 14.2835 4.13649 14.0501 4.36988L7.45009 10.9999C7.30466 11.1545 7.20136 11.3439 7.15009 11.5499C6.39009 13.3899 8.73009 16.0899 9.78009 17.1799C11.8701 19.3399 13.7801 19.8899 14.7801 19.8899H15.1001C15.4963 19.821 15.8528 19.6071 16.1001 19.2899C16.2253 19.0909 16.3053 18.8669 16.3347 18.6337C16.3641 18.4005 16.342 18.1637 16.2701 17.9399Z" fill="#FF0000"/>
</mask>
<g mask="url(#mask0)">
<rect width="24" height="24" fill="url(#paint0_linear)"/>
</g>
<defs>
<linearGradient id="paint0_linear" x1="0" y1="0" x2="24" y2="24" gradientUnits="userSpaceOnUse">
<stop stop-color="#FFC371"/>
<stop offset="1" stop-color="#FF5F6D"/>
</linearGradient>
</defs>
</svg>
