<svg width="25" height="25" viewBox="0 0 25 25" fill="none" xmlns="http://www.w3.org/2000/svg">
<g opacity="0.4">
<mask id="mask0" mask-type="alpha" maskUnits="userSpaceOnUse" x="5" y="2" width="16" height="21">
<path d="M20.5567 11.3274L16.795 8.14405L20.0788 4.05347C20.2383 3.85785 20.335 3.62027 20.3565 3.37083C20.378 3.12139 20.3234 2.87131 20.1996 2.65228C20.0758 2.43325 19.8884 2.25512 19.6611 2.14045C19.4338 2.02579 19.1769 1.97975 18.9229 2.00818L8.40301 3.16834C8.27197 3.17183 8.14186 3.19094 8.01554 3.22524C7.89187 3.25438 7.77327 3.30125 7.66359 3.36433C7.29926 3.56899 6.98341 3.84697 6.73688 4.17992C6.01361 5.09982 4.07948 9.18408 5.51958 16.7678C6.44305 21.6297 7.72494 22.6065 8.63226 22.8879C8.92663 22.9774 9.23516 23.0138 9.54282 22.9953C9.54282 22.9953 10.0498 22.9321 10.476 22.2208C10.9022 21.5096 10.3823 17.3115 10.1531 14.6024L19.8528 13.5402C20.1023 13.5127 20.3382 13.4147 20.5317 13.258C20.7251 13.1013 20.8677 12.8928 20.9421 12.6581C21.0164 12.4233 21.0193 12.1724 20.9502 11.936C20.8812 11.6997 20.7433 11.4882 20.5535 11.3274H20.5567ZM10.0175 12.0703C9.95289 10.221 9.86248 7.32847 9.69458 5.57084L16.1427 4.85325L14.002 7.51814C13.7966 7.77385 13.6997 8.09723 13.7316 8.42104C13.7635 8.74485 13.9216 9.04418 14.1731 9.25679L16.6239 11.3495L10.0175 12.0703Z" fill="#FF0000"/>
</mask>
<g mask="url(#mask0)">
<rect width="25" height="25" fill="#333333"/>
</g>
</g>
</svg>
