<svg width="25" height="25" viewBox="0 0 25 25" fill="none" xmlns="http://www.w3.org/2000/svg">
<g opacity="0.4">
<mask id="mask0" mask-type="alpha" maskUnits="userSpaceOnUse" x="0" y="1" width="25" height="23">
<path d="M24.563 10.8729L13.2087 1.28323H13.1873C13.1531 1.25412 13.1162 1.22835 13.0771 1.20626C13.0473 1.18391 13.0156 1.16433 12.9823 1.14777C12.9474 1.13053 12.9117 1.11511 12.8752 1.10159C12.8383 1.08505 12.8005 1.07066 12.762 1.05849C12.7269 1.04836 12.6911 1.04115 12.6549 1.03694C12.616 1.02185 12.5762 1.00951 12.5356 1H12.303C12.2649 1.00448 12.227 1.01168 12.1898 1.02155C12.1505 1.02649 12.1116 1.03473 12.0736 1.04618L11.9695 1.0862L11.8502 1.13853L11.7645 1.19703C11.7239 1.22085 11.6851 1.2476 11.6483 1.27707L11.6177 1.30785L6.18375 6.0057C6.1852 5.98418 6.1852 5.96258 6.18375 5.94105C6.12562 5.6332 5.98488 4.9436 5.48921 4.7435C5.39365 4.71077 5.29337 4.69413 5.19243 4.69424C4.64781 4.6573 4.05118 4.9436 3.4882 5.67938C3.14552 6.13192 2.49382 7.40336 2.13278 9.52139L0.41632 11.0022C0.186913 11.2049 0.0410816 11.4865 0.00745101 11.7918C-0.0261795 12.0971 0.0548191 12.4041 0.234548 12.6524C0.414277 12.9007 0.679758 13.0725 0.97888 13.134C1.278 13.1954 1.58917 13.1422 1.85129 12.9847C1.87079 14.6452 2.03563 16.3006 2.3439 17.9319C3.22202 22.6667 4.43364 23.618 5.2934 23.8889C5.57253 23.9753 5.86456 24.0118 6.15622 23.9967H6.20211C6.2235 23.9982 6.24497 23.9982 6.26636 23.9967L19.4749 21.9033H19.4932C19.5505 21.8926 19.6068 21.8771 19.6615 21.8571H19.7196C19.7911 21.8301 19.8598 21.7961 19.9246 21.7555C19.946 21.7555 19.9644 21.7247 19.9858 21.7093C20.0291 21.682 20.07 21.6511 20.1082 21.617L20.1694 21.5523C20.2023 21.5185 20.233 21.4825 20.2612 21.4446L20.3132 21.3676C20.3377 21.3307 20.3591 21.2906 20.3805 21.2506C20.4019 21.2106 20.408 21.186 20.4203 21.1552C20.4325 21.1244 20.4509 21.0782 20.4631 21.0382C20.4754 20.9982 20.4631 20.9612 20.4845 20.9212C20.4921 20.8949 20.4982 20.8682 20.5029 20.8412L21.5218 11.5378L22.9873 12.7692C23.236 12.9795 23.5576 13.0817 23.8812 13.0534C24.2048 13.0251 24.504 12.8686 24.713 12.6184C24.9219 12.3681 25.0235 12.0446 24.9954 11.719C24.9673 11.3934 24.8118 11.0923 24.563 10.8821V10.8729ZM19.2668 9.74304L18.1714 19.6159L7.1812 21.346C7.10777 19.3481 6.73755 16.3527 6.658 14.718C6.6121 13.7944 6.55091 11.2269 6.4377 9.03498L12.4315 3.84457L19.2668 9.6199C19.2668 9.66608 19.2668 9.70302 19.2668 9.74304Z" fill="#FF0000"/>
</mask>
<g mask="url(#mask0)">
<rect width="25" height="25" fill="#333333"/>
</g>
</g>
</svg>
