<svg width="24" height="24" viewBox="0 0 24 24" fill="none" xmlns="http://www.w3.org/2000/svg">
<mask id="mask0" mask-type="alpha" maskUnits="userSpaceOnUse" x="4" y="1" width="16" height="22">
<path d="M19.2849 17.824L16.2223 10.6892C17.0256 9.67543 17.4774 8.42796 17.5097 7.13494C17.542 5.84191 17.153 4.57345 16.4013 3.52085C15.4677 2.22718 14.0627 1.35252 12.4898 1.08565C10.9169 0.818786 9.30207 1.18112 7.99396 2.09445C6.77899 2.93908 5.92166 4.20547 5.58874 5.64724C5.25582 7.08902 5.47113 8.60309 6.19278 9.8949C5.1813 12.0334 4.51576 14.3189 4.22099 16.6661C3.61127 20.9984 4.386 22.1731 5.06005 22.657C5.27602 22.8133 5.51864 22.9289 5.77604 22.9982C5.80583 23.0006 5.83576 23.0006 5.86554 22.9982C6.20236 22.9795 6.52069 22.8383 6.76054 22.6011C6.99548 22.3969 7.26677 21.6221 7.54366 20.6181L18.3787 19.3958C18.605 19.3703 18.8181 19.2762 18.9895 19.1263C19.161 18.9763 19.2825 18.7777 19.338 18.5568C19.3452 18.5329 19.3508 18.5087 19.3548 18.4841C19.4001 18.2621 19.3757 18.0316 19.2849 17.824V17.824ZM7.72546 6.35687C7.80935 5.86914 7.98957 5.40301 8.25561 4.98571C8.52165 4.5684 8.86816 4.20829 9.27492 3.92639C10.101 3.34721 11.1221 3.11696 12.1169 3.28554C13.1116 3.45412 13.9998 4.00795 14.589 4.82698C14.8764 5.22711 15.0808 5.68068 15.1903 6.161C15.2998 6.64132 15.3122 7.13869 15.2266 7.62385C15.1905 7.83445 15.1352 8.04134 15.0616 8.24195C14.7983 8.97842 14.3088 9.61278 13.6632 10.0543L13.5401 10.1354C13.0564 10.4454 12.5092 10.6427 11.9389 10.7129C11.3687 10.7831 10.7899 10.7243 10.2454 10.541C9.4828 10.2887 8.82112 9.79856 8.35755 9.14254C8.00803 8.65385 7.78247 8.08756 7.70029 7.49239C7.64887 7.11585 7.65737 6.73355 7.72546 6.35966V6.35687ZM8.11702 18.3135C8.39671 17.1248 8.67639 15.9501 8.88895 15.1586C9.01761 14.6971 9.30289 13.7602 9.62453 12.6778C10.4173 12.931 11.2538 13.0185 12.0818 12.9348C12.9099 12.8511 13.7119 12.5979 14.4379 12.1911L16.6475 17.3402L8.11702 18.3135Z" fill="#FF0000"/>
</mask>
<g mask="url(#mask0)">
<rect x="-3.33325" y="-2.66667" width="29.3333" height="29.3333" fill="url(#paint0_linear)"/>
</g>
<defs>
<linearGradient id="paint0_linear" x1="-3.33325" y1="-2.66667" x2="26.0001" y2="26.6667" gradientUnits="userSpaceOnUse">
<stop stop-color="#FFC371"/>
<stop offset="1" stop-color="#FF5F6D"/>
</linearGradient>
</defs>
</svg>
