<svg width="33" height="25" viewBox="0 0 33 25" fill="none" xmlns="http://www.w3.org/2000/svg">
<g clip-path="url(#clip0)">
<path fill-rule="evenodd" clip-rule="evenodd" d="M13 7.66211V11.6378C13 12.633 13.7755 13.4559 14.7521 13.5321L14.9 13.5378L20 13.5371V18.3001C20 19.2953 19.2245 20.1182 18.2479 20.1944L18.1 20.2001H8.47831L4.22543 24.94L4.22539 20.1997L2.9 20.2001C1.855 20.2001 1 19.3451 1 18.3001V9.56241C1 8.51741 1.855 7.66241 2.9 7.66241L13 7.66211Z" stroke="url(#paint0_linear)" stroke-linejoin="round"/>
<path fill-rule="evenodd" clip-rule="evenodd" d="M28.7746 13.5373L30.1 13.5377C31.145 13.5377 32 12.6827 32 11.6377V2.9C32 1.855 31.145 1 30.1 1H14.9C13.855 1 13 1.855 13 2.9L13.001 2.903L13 2.91845V11.6377C13 12.6827 13.855 13.5377 14.9 13.5377H24.5217L28.7746 18.2776L28.7746 13.5373Z" stroke="url(#paint1_linear)" stroke-linejoin="round"/>
<path d="M9.55078 14.3398C9.55078 14.8893 9.46354 15.3633 9.28906 15.7617C9.11458 16.1576 8.86979 16.4674 8.55469 16.6914L9.57031 17.4883L9.05859 17.9609L7.85938 17.0078C7.67188 17.0547 7.47396 17.0781 7.26562 17.0781C6.81771 17.0781 6.42057 16.9688 6.07422 16.75C5.72786 16.5286 5.45833 16.2148 5.26562 15.8086C5.07552 15.3997 4.97786 14.9271 4.97266 14.3906V13.9805C4.97266 13.4336 5.06771 12.9505 5.25781 12.5312C5.44792 12.112 5.71615 11.7917 6.0625 11.5703C6.41146 11.3464 6.8099 11.2344 7.25781 11.2344C7.71615 11.2344 8.11849 11.3451 8.46484 11.5664C8.8138 11.7878 9.08203 12.1068 9.26953 12.5234C9.45703 12.9375 9.55078 13.4219 9.55078 13.9766V14.3398ZM8.80078 13.9727C8.80078 13.3034 8.66667 12.7878 8.39844 12.4258C8.13281 12.0612 7.7526 11.8789 7.25781 11.8789C6.78646 11.8789 6.41406 12.0599 6.14062 12.4219C5.86979 12.7812 5.73047 13.2812 5.72266 13.9219V14.3398C5.72266 14.9909 5.85807 15.5039 6.12891 15.8789C6.40234 16.2539 6.78125 16.4414 7.26562 16.4414C7.75 16.4414 8.125 16.2656 8.39062 15.9141C8.65625 15.5599 8.79297 15.0534 8.80078 14.3945V13.9727Z" fill="url(#paint2_linear)"/>
<path d="M20.6211 8.51562H18.2383L17.7031 10H16.9297L19.1016 4.3125H19.7578L21.9336 10H21.1641L20.6211 8.51562ZM18.4648 7.89844H20.3984L19.4297 5.23828L18.4648 7.89844Z" fill="url(#paint3_linear)"/>
</g>
<defs>
<linearGradient id="paint0_linear" x1="1" y1="7.66211" x2="18.2002" y2="26.5767" gradientUnits="userSpaceOnUse">
<stop stop-color="#FFC371"/>
<stop offset="1" stop-color="#FF5F6D"/>
</linearGradient>
<linearGradient id="paint1_linear" x1="32" y1="1" x2="14.8002" y2="19.9145" gradientUnits="userSpaceOnUse">
<stop stop-color="#FFC371"/>
<stop offset="1" stop-color="#FF5F6D"/>
</linearGradient>
<linearGradient id="paint2_linear" x1="4.54688" y1="10" x2="12.8546" y2="15.5385" gradientUnits="userSpaceOnUse">
<stop stop-color="#FFC371"/>
<stop offset="1" stop-color="#FF5F6D"/>
</linearGradient>
<linearGradient id="paint3_linear" x1="16.8203" y1="3" x2="25.128" y2="8.53846" gradientUnits="userSpaceOnUse">
<stop stop-color="#FFC371"/>
<stop offset="1" stop-color="#FF5F6D"/>
</linearGradient>
<clipPath id="clip0">
<rect width="33" height="25" fill="white"/>
</clipPath>
</defs>
</svg>
